<?xml version="1.0" standalone="no"?><!DOCTYPE svg PUBLIC "-//W3C//DTD SVG 1.1//EN" "http://www.w3.org/Graphics/SVG/1.1/DTD/svg11.dtd"><svg t="1738001806329" class="icon" viewBox="0 0 1024 1024" version="1.1" xmlns="http://www.w3.org/2000/svg" p-id="4204" xmlns:xlink="http://www.w3.org/1999/xlink" width="200" height="200"><path d="M287.3522 481.223621L510.848356 1024H0l63.856045-319.280223 191.568133-63.856044-127.712089-127.712089 159.640111-31.928023zM734.344512 481.223621L510.848356 1024h510.848356l-63.856044-319.280223-191.568134-63.856044 127.712089-127.712089-159.640111-31.928023z" p-id="4205" fill="#2c2c2c"></path><path d="M600.246819 481.223621c-38.313627 0-76.627253-31.928022-83.012858-70.241648 57.47044 0 114.94088 0 166.025715-12.771209 0 44.699231-38.313627 83.012858-83.012857 83.012857m-185.18253 0c-44.699231 0-83.012858-38.313627-83.012857-83.012857 51.084836 6.385604 102.169671 12.771209 166.025715 12.771209-6.385604 38.313627-38.313627 70.241649-83.012858 70.241648M312.894618 391.825159v95.784067c6.385604 57.47044 31.928022 114.94088 76.627254 146.868902l51.084835 44.699232c38.313627 31.928022 89.398462 31.928022 127.712089 0l51.084836-44.699232c44.699231-38.313627 70.241649-89.398462 76.627253-146.868902V391.825159c121.326485-19.156813 197.953738-57.47044 197.953738-108.555276s-70.241649-83.012858-178.796924-102.169671L657.717259 27.845705c-6.385604-19.156813-31.928022-31.928022-57.47044-25.542417L530.00517 27.845705h-38.313627l-63.856045-25.542417c-19.156813-6.385604-44.699231 0-51.084835 25.542417L319.280223 181.100212c-114.94088 19.156813-185.182529 57.47044-185.182529 102.169671S210.724947 366.282741 319.280223 385.439555" p-id="4206" fill="#2c2c2c"></path></svg>